<?xml version="1.0" standalone="no"?>
<!DOCTYPE svg PUBLIC "-//W3C//DTD SVG 20010904//EN"
 "http://www.w3.org/TR/2001/REC-SVG-20010904/DTD/svg10.dtd">
<svg version="1.0" xmlns="http://www.w3.org/2000/svg"
 width="96.000000pt" height="96.000000pt" viewBox="0 0 96.000000 96.000000"
 preserveAspectRatio="xMidYMid meet">

<g transform="translate(0.000000,96.000000) scale(0.100000,-0.100000)"
fill="#000000" stroke="none">
<path d="M227 854 c-4 -4 -7 -18 -7 -31 0 -20 -5 -23 -40 -23 -52 0 -93 -21
-108 -55 -19 -41 -17 -557 2 -594 26 -49 41 -51 407 -51 369 0 383 2 407 55
17 36 17 554 0 590 -15 34 -56 55 -107 55 -36 0 -40 3 -43 28 -2 16 -9 27 -18
27 -9 0 -16 -11 -18 -27 l-3 -28 -99 0 -99 0 -3 28 c-2 16 -9 27 -18 27 -9 0
-16 -11 -18 -27 l-3 -28 -99 0 -99 0 -3 27 c-3 26 -18 39 -31 27z m-5 -121 c2
-17 9 -28 18 -28 9 0 16 11 18 28 l3 27 99 0 99 0 3 -27 c4 -37 32 -37 36 0
l3 27 99 0 99 0 3 -27 c2 -17 9 -28 18 -28 9 0 16 11 18 28 3 24 7 27 43 27
59 0 79 -26 79 -100 l0 -60 -380 0 -380 0 0 60 c0 74 20 100 79 100 36 0 40
-3 43 -27z m638 -363 c0 -177 -1 -191 -20 -210 -19 -19 -33 -20 -360 -20 -327
0 -341 1 -360 20 -19 19 -20 33 -20 210 l0 190 380 0 380 0 0 -190z"/>
</g>
</svg>
